# xmcd
#
# Track frame offsets: 
#        150
#        18240
#        37207
#        52882
#
# Disc length: 937 seconds
#
# Revision: 1
# Processed by: cddbd v1.5.2PL0 Copyright (c) Steve Scherf et al.
# Submitted via: ExactAudioCopy v0.99pb5
#
DISCID=2a03a704
DTITLE=Mario Mendez - Herz über Kopf
DYEAR=1993
DGENRE=Schlager
TTITLE0=Herz über Kopf
TTITLE1=Wer einmal liebt
TTITLE2=Hier gibt's keine Engel
TTITLE3=Estuve hipnotizado
EXTD=YEAR: 2006
EXTT0=
EXTT1=
EXTT2=
EXTT3=
PLAYORDER=
